<svg width="24" height="24" viewBox="0 0 24 24" fill="none" xmlns="http://www.w3.org/2000/svg">
<g opacity="0.5">
<path d="M13.47 8.53C13.3964 8.46134 13.3373 8.37854 13.2963 8.28654C13.2553 8.19454 13.2332 8.09523 13.2315 7.99452C13.2297 7.89382 13.2482 7.79379 13.2859 7.7004C13.3236 7.60701 13.3798 7.52218 13.451 7.45096C13.5222 7.37974 13.6071 7.3236 13.7005 7.28588C13.7938 7.24816 13.8939 7.22963 13.9946 7.23141C14.0953 7.23319 14.1946 7.25523 14.2866 7.29622C14.3786 7.33721 14.4614 7.39631 14.53 7.47L18.53 11.47C18.6705 11.6106 18.7494 11.8013 18.7494 12C18.7494 12.1988 18.6705 12.3894 18.53 12.53L14.53 16.53C14.4614 16.6037 14.3786 16.6628 14.2866 16.7038C14.1946 16.7448 14.0953 16.7668 13.9946 16.7686C13.8939 16.7704 13.7938 16.7518 13.7005 16.7141C13.6071 16.6764 13.5222 16.6203 13.451 16.549C13.3798 16.4778 13.3236 16.393 13.2859 16.2996C13.2482 16.2062 13.2297 16.1062 13.2315 16.0055C13.2332 15.9048 13.2553 15.8055 13.2963 15.7135C13.3373 15.6215 13.3964 15.5387 13.47 15.47L16.19 12.75H6.50005C6.30114 12.75 6.11037 12.671 5.96972 12.5303C5.82907 12.3897 5.75005 12.1989 5.75005 12C5.75005 11.8011 5.82907 11.6103 5.96972 11.4697C6.11037 11.329 6.30114 11.25 6.50005 11.25H16.19L13.47 8.53Z" fill="#757575"/>
</g>
</svg>
