<svg width="60" height="60" viewBox="0 0 60 60" fill="none" xmlns="http://www.w3.org/2000/svg">
<rect width="60" height="59.599" rx="29.7995" fill="#4872FA"/>
<path d="M36.2679 30.8441H31.0446V36.0674C31.0446 36.3444 30.9346 36.6101 30.7387 36.806C30.5428 37.0019 30.2771 37.112 30 37.112C29.7229 37.112 29.4572 37.0019 29.2613 36.806C29.0654 36.6101 28.9554 36.3444 28.9554 36.0674V30.8441H23.7321C23.4551 30.8441 23.1894 30.7341 22.9935 30.5382C22.7976 30.3423 22.6875 30.0766 22.6875 29.7995C22.6875 29.5224 22.7976 29.2567 22.9935 29.0608C23.1894 28.8649 23.4551 28.7549 23.7321 28.7549H28.9554V23.5316C28.9554 23.2546 29.0654 22.9889 29.2613 22.793C29.4572 22.5971 29.7229 22.487 30 22.487C30.2771 22.487 30.5428 22.5971 30.7387 22.793C30.9346 22.9889 31.0446 23.2546 31.0446 23.5316V28.7549H36.2679C36.5449 28.7549 36.8106 28.8649 37.0065 29.0608C37.2024 29.2567 37.3125 29.5224 37.3125 29.7995C37.3125 30.0766 37.2024 30.3423 37.0065 30.5382C36.8106 30.7341 36.5449 30.8441 36.2679 30.8441Z" fill="white"/>
</svg>
