<svg width="20" height="20" viewBox="0 0 20 20" fill="none" xmlns="http://www.w3.org/2000/svg">
<path d="M14.651 11.6279C14.8977 11.6279 15.1343 11.5299 15.3088 11.3555C15.4833 11.181 15.5813 10.9444 15.5813 10.6977C15.5813 10.4509 15.4833 10.2143 15.3088 10.0399C15.1343 9.86541 14.8977 9.7674 14.651 9.7674C14.4043 9.7674 14.1677 9.86541 13.9932 10.0399C13.8187 10.2143 13.7207 10.4509 13.7207 10.6977C13.7207 10.9444 13.8187 11.181 13.9932 11.3555C14.1677 11.5299 14.4043 11.6279 14.651 11.6279ZM14.651 15.3491C14.8977 15.3491 15.1343 15.251 15.3088 15.0766C15.4833 14.9021 15.5813 14.6655 15.5813 14.4188C15.5813 14.172 15.4833 13.9354 15.3088 13.761C15.1343 13.5865 14.8977 13.4885 14.651 13.4885C14.4043 13.4885 14.1677 13.5865 13.9932 13.761C13.8187 13.9354 13.7207 14.172 13.7207 14.4188C13.7207 14.6655 13.8187 14.9021 13.9932 15.0766C14.1677 15.251 14.4043 15.3491 14.651 15.3491ZM10.9299 10.6977C10.9299 10.9444 10.8319 11.181 10.6574 11.3555C10.483 11.5299 10.2463 11.6279 9.99962 11.6279C9.7529 11.6279 9.51628 11.5299 9.34182 11.3555C9.16736 11.181 9.06935 10.9444 9.06935 10.6977C9.06935 10.4509 9.16736 10.2143 9.34182 10.0399C9.51628 9.86541 9.7529 9.7674 9.99962 9.7674C10.2463 9.7674 10.483 9.86541 10.6574 10.0399C10.8319 10.2143 10.9299 10.4509 10.9299 10.6977ZM10.9299 14.4188C10.9299 14.6655 10.8319 14.9021 10.6574 15.0766C10.483 15.251 10.2463 15.3491 9.99962 15.3491C9.7529 15.3491 9.51628 15.251 9.34182 15.0766C9.16736 14.9021 9.06935 14.6655 9.06935 14.4188C9.06935 14.172 9.16736 13.9354 9.34182 13.761C9.51628 13.5865 9.7529 13.4885 9.99962 13.4885C10.2463 13.4885 10.483 13.5865 10.6574 13.761C10.8319 13.9354 10.9299 14.172 10.9299 14.4188ZM5.34824 11.6279C5.59497 11.6279 5.83159 11.5299 6.00605 11.3555C6.18051 11.181 6.27852 10.9444 6.27852 10.6977C6.27852 10.4509 6.18051 10.2143 6.00605 10.0399C5.83159 9.86541 5.59497 9.7674 5.34824 9.7674C5.10152 9.7674 4.8649 9.86541 4.69044 10.0399C4.51598 10.2143 4.41797 10.4509 4.41797 10.6977C4.41797 10.9444 4.51598 11.181 4.69044 11.3555C4.8649 11.5299 5.10152 11.6279 5.34824 11.6279ZM5.34824 15.3491C5.59497 15.3491 5.83159 15.251 6.00605 15.0766C6.18051 14.9021 6.27852 14.6655 6.27852 14.4188C6.27852 14.172 6.18051 13.9354 6.00605 13.761C5.83159 13.5865 5.59497 13.4885 5.34824 13.4885C5.10152 13.4885 4.8649 13.5865 4.69044 13.761C4.51598 13.9354 4.41797 14.172 4.41797 14.4188C4.41797 14.6655 4.51598 14.9021 4.69044 15.0766C4.8649 15.251 5.10152 15.3491 5.34824 15.3491Z" fill="#757575"/>
<path fill-rule="evenodd" clip-rule="evenodd" d="M5.34816 0.232086C5.5332 0.232086 5.71066 0.305594 5.84151 0.43644C5.97235 0.567285 6.04586 0.74475 6.04586 0.929793V1.63959C6.66171 1.6275 7.33988 1.6275 8.08596 1.6275H11.9122C12.6592 1.6275 13.3374 1.6275 13.9532 1.63959V0.929793C13.9532 0.74475 14.0267 0.567285 14.1576 0.43644C14.2884 0.305594 14.4659 0.232086 14.6509 0.232086C14.836 0.232086 15.0134 0.305594 15.1443 0.43644C15.2751 0.567285 15.3486 0.74475 15.3486 0.929793V1.69913C15.5905 1.71774 15.8197 1.7413 16.0361 1.76983C17.1264 1.91682 18.0092 2.22567 18.706 2.92151C19.4018 3.61829 19.7107 4.50112 19.8577 5.59141C20 6.65192 20 8.00547 20 9.71532V11.6801C20 13.3899 20 14.7444 19.8577 15.804C19.7107 16.8943 19.4018 17.7771 18.706 18.4739C18.0092 19.1697 17.1264 19.4786 16.0361 19.6255C14.9756 19.7679 13.622 19.7679 11.9122 19.7679H8.08782C6.37797 19.7679 5.02349 19.7679 3.96391 19.6255C2.87362 19.4786 1.99079 19.1697 1.29401 18.4739C0.598167 17.7771 0.289316 16.8943 0.142332 15.804C0 14.7435 0 13.3899 0 11.6801V9.71532C0 8.00547 0 6.65099 0.142332 5.59141C0.289316 4.50112 0.598167 3.61829 1.29401 2.92151C1.99079 2.22567 2.87362 1.91682 3.96391 1.76983C4.18097 1.7413 4.41013 1.71774 4.65138 1.69913V0.929793C4.65138 0.744911 4.72476 0.567587 4.8554 0.436768C4.98605 0.30595 5.16327 0.232333 5.34816 0.232086ZM4.1481 3.15315C3.21317 3.27874 2.67361 3.51503 2.28011 3.90854C1.8866 4.30204 1.65031 4.8416 1.52472 5.77653C1.50364 5.93468 1.48565 6.10182 1.47077 6.27795H18.5283C18.5134 6.10182 18.4954 5.93437 18.4743 5.7756C18.3488 4.84067 18.1125 4.30111 17.719 3.90761C17.3255 3.5141 16.7859 3.27781 15.85 3.15222C14.8946 3.02384 13.6341 3.02198 11.8601 3.02198H8.13898C6.36495 3.02198 5.10535 3.02477 4.1481 3.15315ZM1.39448 9.76741C1.39448 8.97296 1.39448 8.28176 1.40658 7.67429H18.5925C18.6046 8.28176 18.6046 8.97296 18.6046 9.76741V11.628C18.6046 13.402 18.6027 14.6625 18.4743 15.6188C18.3488 16.5538 18.1125 17.0933 17.719 17.4868C17.3255 17.8803 16.7859 18.1166 15.85 18.2422C14.8946 18.3706 13.6341 18.3725 11.8601 18.3725H8.13898C6.36495 18.3725 5.10535 18.3706 4.1481 18.2422C3.21317 18.1166 2.67361 17.8803 2.28011 17.4868C1.8866 17.0933 1.65031 16.5538 1.52472 15.6179C1.39634 14.6625 1.39448 13.402 1.39448 11.628V9.76741Z" fill="#757575"/>
</svg>
