<svg width="91" height="39" viewBox="0 0 91 39" fill="none" xmlns="http://www.w3.org/2000/svg">
<path d="M38.375 21.3743V5.37427C38.375 4.84383 38.5857 4.33513 38.9608 3.96005C39.3359 3.58498 39.8446 3.37427 40.375 3.37427H50.375C50.9054 3.37427 51.4141 3.58498 51.7892 3.96005C52.1643 4.33513 52.375 4.84383 52.375 5.37427V21.3743L46.457 17.5693C46.1343 17.3617 45.7587 17.2513 45.375 17.2513C44.9913 17.2513 44.6157 17.3617 44.293 17.5693L38.375 21.3743Z" stroke="#757575" stroke-width="1.5" stroke-linecap="round" stroke-linejoin="round"/>
<path d="M25.9561 33.2981V32.2776H26.8936C27.2874 32.2776 27.5999 32.1799 27.8311 31.9846C28.0654 31.7861 28.1826 31.5273 28.1826 31.2083V31.1985C28.1826 30.9999 28.1322 30.8274 28.0312 30.6809C27.9336 30.5344 27.792 30.4221 27.6064 30.344C27.4209 30.2659 27.1963 30.2268 26.9326 30.2268C26.6787 30.2268 26.4557 30.2659 26.2637 30.344C26.0716 30.4221 25.9186 30.5344 25.8047 30.6809C25.6908 30.8274 25.624 31.0048 25.6045 31.2131L25.5996 31.2424H24.4131L24.418 31.179C24.4473 30.7623 24.5693 30.4026 24.7842 30.0999C25.0023 29.7971 25.2969 29.5644 25.668 29.4016C26.0391 29.2356 26.4736 29.1526 26.9717 29.1526C27.4502 29.1526 27.8717 29.2323 28.2363 29.3918C28.6009 29.5514 28.8874 29.7743 29.0957 30.0608C29.304 30.3472 29.4082 30.6793 29.4082 31.0569V31.0667C29.4082 31.454 29.2845 31.7958 29.0371 32.092C28.793 32.3883 28.4756 32.5787 28.085 32.6633V32.7463C28.5439 32.7919 28.9199 32.9644 29.2129 33.2639C29.5059 33.5634 29.6523 33.9556 29.6523 34.4407V34.4504C29.6523 34.8573 29.5335 35.2187 29.2959 35.5344C29.0583 35.8502 28.7344 36.0992 28.3242 36.2815C27.9141 36.4605 27.4535 36.55 26.9424 36.55C26.4215 36.55 25.9626 36.4638 25.5654 36.2913C25.1683 36.1155 24.8542 35.873 24.623 35.5637C24.3919 35.2512 24.265 34.8883 24.2422 34.4749L24.2373 34.4309H25.458L25.4629 34.4651C25.4824 34.6734 25.5557 34.8541 25.6826 35.0071C25.8096 35.1568 25.9805 35.2724 26.1953 35.3538C26.4134 35.4351 26.6641 35.4758 26.9473 35.4758C27.2337 35.4758 27.4827 35.4303 27.6943 35.3391C27.9092 35.248 28.0752 35.121 28.1924 34.9583C28.3128 34.7922 28.373 34.5986 28.373 34.3772V34.3674C28.373 34.0387 28.2461 33.7782 27.9922 33.5862C27.7383 33.3941 27.3802 33.2981 26.918 33.2981H25.9561ZM32.4404 36.4622C32.1051 36.4622 31.804 36.3971 31.5371 36.2668C31.2734 36.1366 31.0651 35.9527 30.9121 35.7151C30.7624 35.4742 30.6875 35.191 30.6875 34.8655V34.8557C30.6875 34.54 30.7656 34.2681 30.9219 34.0403C31.0781 33.8092 31.3076 33.6285 31.6104 33.4983C31.9131 33.3681 32.2809 33.2916 32.7139 33.2688L34.6865 33.1467V33.9475L32.8848 34.0647C32.543 34.0842 32.2907 34.1558 32.1279 34.2795C31.9652 34.4032 31.8838 34.5758 31.8838 34.7971V34.8069C31.8838 35.0347 31.9701 35.2122 32.1426 35.3391C32.3184 35.4661 32.5413 35.5295 32.8115 35.5295C33.0557 35.5295 33.2738 35.4807 33.4658 35.3831C33.6579 35.2854 33.8092 35.1536 33.9199 34.9875C34.0306 34.8183 34.0859 34.6278 34.0859 34.4163V32.7268C34.0859 32.4599 34.0013 32.2564 33.832 32.1165C33.6628 31.9732 33.4121 31.9016 33.0801 31.9016C32.8034 31.9016 32.5771 31.9504 32.4014 32.0481C32.2256 32.1425 32.1068 32.2776 32.0449 32.4534L32.04 32.4729H30.8926L30.8975 32.429C30.9365 32.1295 31.0537 31.8674 31.249 31.6428C31.4443 31.4182 31.7031 31.2441 32.0254 31.1204C32.3477 30.9967 32.7188 30.9348 33.1387 30.9348C33.6009 30.9348 33.9915 31.0064 34.3105 31.1497C34.6296 31.2896 34.8721 31.4947 35.0381 31.7649C35.2041 32.0318 35.2871 32.3525 35.2871 32.7268V36.3743H34.0859V35.6418H34.0029C33.9053 35.8111 33.7783 35.9576 33.6221 36.0813C33.4691 36.205 33.2933 36.2994 33.0947 36.3645C32.8962 36.4296 32.6781 36.4622 32.4404 36.4622ZM38.002 36.3743H36.8398V31.0374H38.3877L39.9648 34.7581H40.0479L41.6348 31.0374H43.1533V36.3743H41.9912V32.7317H41.8984L40.4287 36.135H39.5596L38.0947 32.7317H38.002V36.3743ZM47.0205 36.4817C46.4899 36.4817 46.0342 36.3694 45.6533 36.1448C45.2757 35.9202 44.9844 35.6012 44.7793 35.1877C44.5742 34.7743 44.4717 34.2844 44.4717 33.718V33.7131C44.4717 33.1532 44.5726 32.665 44.7744 32.2483C44.9795 31.8316 45.2692 31.5094 45.6436 31.2815C46.0179 31.0504 46.4574 30.9348 46.9619 30.9348C47.4697 30.9348 47.9059 31.0471 48.2705 31.2717C48.6383 31.4931 48.9215 31.804 49.1201 32.2043C49.3187 32.6047 49.418 33.0735 49.418 33.6106V34.011H45.082V33.1956H48.8223L48.2461 33.9573V33.4739C48.2461 33.1191 48.1924 32.8245 48.085 32.5901C47.9775 32.3557 47.8278 32.1799 47.6357 32.0627C47.4469 31.9456 47.2272 31.887 46.9766 31.887C46.7259 31.887 46.5029 31.9488 46.3076 32.0725C46.1156 32.193 45.9626 32.372 45.8486 32.6096C45.738 32.844 45.6826 33.1321 45.6826 33.4739V33.9622C45.6826 34.2909 45.738 34.5725 45.8486 34.8069C45.9593 35.038 46.1156 35.217 46.3174 35.344C46.5225 35.4677 46.765 35.5295 47.0449 35.5295C47.263 35.5295 47.4502 35.4986 47.6064 35.4368C47.766 35.3717 47.8945 35.2952 47.9922 35.2073C48.0898 35.1161 48.1582 35.0299 48.1973 34.9485L48.2119 34.9143H49.3643L49.3545 34.9583C49.3122 35.1308 49.234 35.3066 49.1201 35.4856C49.0094 35.6614 48.8581 35.8258 48.666 35.9788C48.4772 36.1285 48.2461 36.2506 47.9727 36.345C47.6992 36.4361 47.3818 36.4817 47.0205 36.4817ZM54.5205 31.0374V31.9797H52.875V36.3743H51.6592V31.9797H50.0186V31.0374H54.5205ZM57.1572 34.0696H56.8838V36.3743H55.668V31.0374H56.8838V33.1809H57.1426L58.9053 31.0374H60.3018L58.0605 33.6008V33.4055L60.4043 36.3743H58.9346L57.1572 34.0696ZM61.4883 36.3743V31.0374H62.6895V34.6116H63.3193L62.4893 35.0803L65.0381 31.0374H66.2344V36.3743H65.0381V32.7805H64.4082L65.2285 32.3069L62.6895 36.3743H61.4883Z" fill="#757575"/>
</svg>
