<svg width="20" height="20" viewBox="0 0 20 20" fill="none" xmlns="http://www.w3.org/2000/svg">
<g clip-path="url(#clip0_248_2061)">
<path d="M16.6008 8.0333L17.3733 7.2608C17.9878 6.64628 18.333 5.8128 18.333 4.94372C18.333 4.07465 17.9878 3.24117 17.3733 2.62664C16.7587 2.01211 15.9253 1.66687 15.0562 1.66687C14.1871 1.66687 13.3536 2.01211 12.7391 2.62664L11.9666 3.39914L4.86493 10.4991C4.3841 10.9808 4.14327 11.2216 3.9366 11.4866C3.69276 11.7995 3.48349 12.1379 3.31243 12.4958C3.16827 12.7991 3.06077 13.1225 2.84577 13.7675L1.9341 16.5016M16.6008 8.0333C16.6008 8.0333 14.9599 7.93664 13.5116 6.4883C12.0633 5.0408 11.9674 3.39914 11.9674 3.39914M16.6008 8.0333L9.49993 15.1333C9.0191 15.6141 8.77827 15.855 8.51327 16.0616C8.20037 16.3055 7.86202 16.5148 7.5041 16.6858C7.20077 16.83 6.87827 16.9375 6.23243 17.1525L3.49827 18.0641M3.49827 18.0641L2.82993 18.2875C2.67415 18.3397 2.50688 18.3475 2.34692 18.3099C2.18697 18.2722 2.04068 18.1908 1.92449 18.0746C1.80831 17.9584 1.72683 17.8121 1.68922 17.6521C1.65161 17.4922 1.65936 17.3249 1.7116 17.1691L1.93493 16.5008L3.49827 18.0641Z" stroke="#4872FA" stroke-width="1.5"/>
</g>
<defs>
<clipPath id="clip0_248_2061">
<rect width="20" height="20" fill="white"/>
</clipPath>
</defs>
</svg>
