<svg width="91" height="39" viewBox="0 0 91 39" fill="none" xmlns="http://www.w3.org/2000/svg">
<path d="M47.6287 4.37427H43.6213C39.8431 4.37427 37.954 4.37427 36.7802 5.54584C35.9016 6.42285 35.6807 7.69999 35.6252 9.8687C35.618 10.1468 35.8462 10.3689 36.1158 10.4394C36.9757 10.6643 37.6102 11.4453 37.6102 12.3743C37.6102 13.3032 36.9757 14.0842 36.1158 14.3091C35.8462 14.3796 35.618 14.6018 35.6252 14.8798C35.6807 17.0485 35.9016 18.3257 36.7802 19.2027C37.954 20.3743 39.8431 20.3743 43.6213 20.3743H47.6287C51.4069 20.3743 53.296 20.3743 54.4698 19.2027C55.3484 18.3257 55.5693 17.0485 55.6248 14.8798C55.632 14.6018 55.4038 14.3796 55.1342 14.3091C54.2743 14.0842 53.6398 13.3032 53.6398 12.3743C53.6398 11.4453 54.2743 10.6643 55.1342 10.4394C55.4038 10.3689 55.632 10.1468 55.6248 9.8687C55.5693 7.69999 55.3484 6.42285 54.4698 5.54584C53.296 4.37427 51.4069 4.37427 47.6287 4.37427Z" stroke="#757575" stroke-width="1.5"/>
<path d="M44.7709 10.3968C45.1509 9.71511 45.3409 9.37427 45.625 9.37427C45.9091 9.37427 46.0991 9.7151 46.4791 10.3968L46.5774 10.5731C46.6853 10.7668 46.7393 10.8637 46.8235 10.9276C46.9077 10.9915 47.0125 11.0152 47.2222 11.0627L47.4131 11.1059C48.151 11.2728 48.52 11.3563 48.6078 11.6386C48.6956 11.9209 48.444 12.215 47.941 12.8032L47.8108 12.9554C47.6679 13.1226 47.5964 13.2062 47.5642 13.3096C47.5321 13.413 47.5429 13.5245 47.5645 13.7475L47.5842 13.9506C47.6602 14.7354 47.6983 15.1279 47.4685 15.3023C47.2386 15.4768 46.8932 15.3177 46.2023 14.9996L46.0236 14.9173C45.8272 14.8269 45.7291 14.7817 45.625 14.7817C45.5209 14.7817 45.4228 14.8269 45.2264 14.9173L45.0477 14.9996C44.3568 15.3177 44.0114 15.4768 43.7815 15.3023C43.5517 15.1279 43.5898 14.7354 43.6658 13.9506L43.6855 13.7475C43.7071 13.5245 43.7179 13.413 43.6858 13.3096C43.6536 13.2062 43.5821 13.1226 43.4392 12.9554L43.309 12.8032C42.806 12.215 42.5544 11.9209 42.6422 11.6386C42.73 11.3563 43.099 11.2728 43.8369 11.1059L44.0278 11.0627C44.2375 11.0152 44.3423 10.9915 44.4265 10.9276C44.5107 10.8637 44.5647 10.7668 44.6726 10.5731L44.7709 10.3968Z" stroke="#757575" stroke-width="1.5"/>
<path d="M29.7119 33.2981V32.2776H30.6494C31.0433 32.2776 31.3558 32.1799 31.5869 31.9846C31.8213 31.7861 31.9385 31.5273 31.9385 31.2083V31.1985C31.9385 30.9999 31.888 30.8274 31.7871 30.6809C31.6895 30.5344 31.5479 30.4221 31.3623 30.344C31.1768 30.2659 30.9521 30.2268 30.6885 30.2268C30.4346 30.2268 30.2116 30.2659 30.0195 30.344C29.8275 30.4221 29.6745 30.5344 29.5605 30.6809C29.4466 30.8274 29.3799 31.0048 29.3604 31.2131L29.3555 31.2424H28.1689L28.1738 31.179C28.2031 30.7623 28.3252 30.4026 28.54 30.0999C28.7581 29.7971 29.0527 29.5644 29.4238 29.4016C29.7949 29.2356 30.2295 29.1526 30.7275 29.1526C31.2061 29.1526 31.6276 29.2323 31.9922 29.3918C32.3568 29.5514 32.6432 29.7743 32.8516 30.0608C33.0599 30.3472 33.1641 30.6793 33.1641 31.0569V31.0667C33.1641 31.454 33.0404 31.7958 32.793 32.092C32.5488 32.3883 32.2314 32.5787 31.8408 32.6633V32.7463C32.2998 32.7919 32.6758 32.9644 32.9688 33.2639C33.2617 33.5634 33.4082 33.9556 33.4082 34.4407V34.4504C33.4082 34.8573 33.2894 35.2187 33.0518 35.5344C32.8141 35.8502 32.4902 36.0992 32.0801 36.2815C31.6699 36.4605 31.2093 36.55 30.6982 36.55C30.1774 36.55 29.7184 36.4638 29.3213 36.2913C28.9242 36.1155 28.61 35.873 28.3789 35.5637C28.1478 35.2512 28.0208 34.8883 27.998 34.4749L27.9932 34.4309H29.2139L29.2188 34.4651C29.2383 34.6734 29.3115 34.8541 29.4385 35.0071C29.5654 35.1568 29.7363 35.2724 29.9512 35.3538C30.1693 35.4351 30.4199 35.4758 30.7031 35.4758C30.9896 35.4758 31.2386 35.4303 31.4502 35.3391C31.665 35.248 31.8311 35.121 31.9482 34.9583C32.0687 34.7922 32.1289 34.5986 32.1289 34.3772V34.3674C32.1289 34.0387 32.002 33.7782 31.748 33.5862C31.4941 33.3941 31.1361 33.2981 30.6738 33.2981H29.7119ZM36.1963 36.4622C35.861 36.4622 35.5599 36.3971 35.293 36.2668C35.0293 36.1366 34.821 35.9527 34.668 35.7151C34.5182 35.4742 34.4434 35.191 34.4434 34.8655V34.8557C34.4434 34.54 34.5215 34.2681 34.6777 34.0403C34.834 33.8092 35.0635 33.6285 35.3662 33.4983C35.6689 33.3681 36.0368 33.2916 36.4697 33.2688L38.4424 33.1467V33.9475L36.6406 34.0647C36.2988 34.0842 36.0465 34.1558 35.8838 34.2795C35.721 34.4032 35.6396 34.5758 35.6396 34.7971V34.8069C35.6396 35.0347 35.7259 35.2122 35.8984 35.3391C36.0742 35.4661 36.2972 35.5295 36.5674 35.5295C36.8115 35.5295 37.0296 35.4807 37.2217 35.3831C37.4137 35.2854 37.5651 35.1536 37.6758 34.9875C37.7865 34.8183 37.8418 34.6278 37.8418 34.4163V32.7268C37.8418 32.4599 37.7572 32.2564 37.5879 32.1165C37.4186 31.9732 37.168 31.9016 36.8359 31.9016C36.5592 31.9016 36.333 31.9504 36.1572 32.0481C35.9814 32.1425 35.8626 32.2776 35.8008 32.4534L35.7959 32.4729H34.6484L34.6533 32.429C34.6924 32.1295 34.8096 31.8674 35.0049 31.6428C35.2002 31.4182 35.459 31.2441 35.7812 31.1204C36.1035 30.9967 36.4746 30.9348 36.8945 30.9348C37.3568 30.9348 37.7474 31.0064 38.0664 31.1497C38.3854 31.2896 38.6279 31.4947 38.7939 31.7649C38.96 32.0318 39.043 32.3525 39.043 32.7268V36.3743H37.8418V35.6418H37.7588C37.6611 35.8111 37.5342 35.9576 37.3779 36.0813C37.2249 36.205 37.0492 36.2994 36.8506 36.3645C36.652 36.4296 36.4339 36.4622 36.1963 36.4622ZM40.5957 36.3743V31.0374H45.2295V36.3743H44.0137V31.9797H41.8115V36.3743H40.5957ZM46.8066 36.3743V31.0374H48.0078V34.6116H48.6377L47.8076 35.0803L50.3564 31.0374H51.5527V36.3743H50.3564V32.7805H49.7266L50.5469 32.3069L48.0078 36.3743H46.8066ZM55.4199 36.4817C54.8828 36.4817 54.4238 36.371 54.043 36.1497C53.6621 35.9283 53.3708 35.6093 53.1689 35.1926C52.9671 34.776 52.8662 34.2779 52.8662 33.6985V33.6887C52.8662 33.1125 52.9671 32.6194 53.1689 32.2092C53.3708 31.7991 53.6621 31.4849 54.043 31.2668C54.4238 31.0455 54.8812 30.9348 55.415 30.9348C55.874 30.9348 56.2679 31.0146 56.5967 31.1741C56.9287 31.3303 57.1908 31.5484 57.3828 31.8284C57.5781 32.1051 57.6986 32.429 57.7441 32.8V32.8196H56.5967L56.5918 32.8049C56.5365 32.5445 56.4095 32.3313 56.2109 32.1653C56.0156 31.9993 55.752 31.9163 55.4199 31.9163C55.1432 31.9163 54.9056 31.9862 54.707 32.1262C54.5117 32.2662 54.362 32.468 54.2578 32.7317C54.1536 32.9954 54.1016 33.3144 54.1016 33.6887V33.6985C54.1016 34.0761 54.1536 34.4 54.2578 34.6702C54.3652 34.9371 54.5166 35.1422 54.7119 35.2854C54.9072 35.4254 55.1432 35.4954 55.4199 35.4954C55.7357 35.4954 55.9896 35.4237 56.1816 35.2805C56.377 35.1373 56.512 34.9257 56.5869 34.6458L56.5967 34.6262L57.7393 34.6213L57.7344 34.6653C57.6758 35.0266 57.5488 35.344 57.3535 35.6174C57.1615 35.8909 56.9043 36.1041 56.582 36.2571C56.2598 36.4068 55.8724 36.4817 55.4199 36.4817ZM58.9941 36.3743V31.0374H60.21V32.6487H61.2598C61.8848 32.6487 62.3812 32.818 62.749 33.1565C63.1201 33.4918 63.3057 33.9426 63.3057 34.509V34.5188C63.3057 35.0852 63.1201 35.5361 62.749 35.8713C62.3812 36.2066 61.8848 36.3743 61.2598 36.3743H58.9941ZM61.1035 33.5862H60.21V35.4368H61.1035C61.403 35.4368 61.6406 35.3521 61.8164 35.1829C61.9922 35.0103 62.0801 34.7874 62.0801 34.5139V34.5042C62.0801 34.2275 61.9922 34.0061 61.8164 33.8401C61.6406 33.6708 61.403 33.5862 61.1035 33.5862Z" fill="#757575"/>
</svg>
