<svg width="393" height="91" viewBox="0 0 393 91" fill="none" xmlns="http://www.w3.org/2000/svg">
<mask id="path-1-inside-1_5_3" fill="white">
<path fill-rule="evenodd" clip-rule="evenodd" d="M165.272 0.842896C164.284 3.93474 163.75 7.22602 163.75 10.6401C163.75 28.6066 178.534 43.1713 196.5 43.1713C214.466 43.1713 229.25 28.6066 229.25 10.6401C229.25 7.22602 228.716 3.93474 227.728 0.842896H393V91H0V0.842896H165.272Z"/>
</mask>
<path fill-rule="evenodd" clip-rule="evenodd" d="M165.272 0.842896C164.284 3.93474 163.75 7.22602 163.75 10.6401C163.75 28.6066 178.534 43.1713 196.5 43.1713C214.466 43.1713 229.25 28.6066 229.25 10.6401C229.25 7.22602 228.716 3.93474 227.728 0.842896H393V91H0V0.842896H165.272Z" fill="white"/>
<path d="M165.272 0.842896L166.224 1.14731L166.641 -0.157104H165.272V0.842896ZM227.728 0.842896V-0.157104H226.359L226.776 1.14731L227.728 0.842896ZM393 0.842896H394V-0.157104H393V0.842896ZM393 91V92H394V91H393ZM0 91H-1V92H0V91ZM0 0.842896V-0.157104H-1V0.842896H0ZM164.75 10.6401C164.75 7.33086 165.267 4.1422 166.224 1.14731L164.319 0.538485C163.3 3.72728 162.75 7.12119 162.75 10.6401H164.75ZM196.5 42.1713C179.077 42.1713 164.75 28.0456 164.75 10.6401H162.75C162.75 29.1676 177.99 44.1713 196.5 44.1713V42.1713ZM228.25 10.6401C228.25 28.0456 213.923 42.1713 196.5 42.1713V44.1713C215.01 44.1713 230.25 29.1676 230.25 10.6401H228.25ZM226.776 1.14731C227.733 4.1422 228.25 7.33086 228.25 10.6401H230.25C230.25 7.12119 229.7 3.72728 228.681 0.538485L226.776 1.14731ZM227.728 1.8429H393V-0.157104H227.728V1.8429ZM392 0.842896V91H394V0.842896H392ZM393 90H0V92H393V90ZM1 91V0.842896H-1V91H1ZM0 1.8429H165.272V-0.157104H0V1.8429Z" fill="#ECEFF5" mask="url(#path-1-inside-1_5_3)"/>
</svg>
